<svg xmlns="http://www.w3.org/2000/svg" viewBox="0 0 1200 800"><defs><linearGradient id="wall" x1="0" y1="0" x2="0" y2="1"><stop stop-color="#eee7db"/><stop offset="1" stop-color="#d9d0c2"/></linearGradient><linearGradient id="floor" x1="0" y1="0" x2="1" y2="0"><stop stop-color="#b7a993"/><stop offset="1" stop-color="#8e806c"/></linearGradient><radialGradient id="lamp"><stop stop-color="#fff6ce" stop-opacity=".95"/><stop offset="1" stop-color="#e7a83c" stop-opacity="0"/></radialGradient><filter id="blur"><feGaussianBlur stdDeviation="25"/></filter></defs><rect width="1200" height="800" fill="url(#wall)"/><path d="M0 590L1200 510V800H0Z" fill="url(#floor)"/><rect x="120" y="180" width="410" height="290" rx="12" fill="#f7f3eb" stroke="#c8beae"/><rect x="145" y="205" width="360" height="240" fill="#d5c7b4"/><path d="M140 510h450v120H140z" fill="#34322f"/><rect x="170" y="465" width="390" height="120" rx="30" fill="#58534b"/><rect x="240" y="545" width="90" height="75" fill="#8b6c4a"/><rect x="450" y="545" width="90" height="75" fill="#8b6c4a"/><path d="M850 80V290" stroke="#2b2a28" stroke-width="10"/><path d="M760 290Q850 255 940 290L915 350Q850 365 785 350Z" fill="#20201e"/><ellipse cx="850" cy="365" rx="125" ry="80" fill="url(#lamp)" filter="url(#blur)"/><ellipse cx="850" cy="365" rx="55" ry="18" fill="#fff4c8"/><rect x="760" y="540" width="190" height="150" rx="10" fill="#d8cbb8"/><ellipse cx="855" cy="535" rx="90" ry="16" fill="#9b8061"/><circle cx="1000" cy="590" r="45" fill="#3b3935"/><path d="M1000 545v90M965 585h70" stroke="#c7b99f" stroke-width="5"/></svg>