<svg xmlns="http://www.w3.org/2000/svg" viewBox="0 0 1200 800"><rect width="1200" height="800" fill="#e7dfd5"/><path d="M0 610L1200 560V800H0Z" fill="#b5a38e"/><rect x="180" y="280" width="840" height="330" rx="28" fill="#f2ede4"/><rect x="250" y="350" width="700" height="250" rx="20" fill="#b6a58f"/><rect x="305" y="310" width="260" height="110" rx="20" fill="#e4d9ca"/><rect x="635" y="310" width="260" height="110" rx="20" fill="#e4d9ca"/><path d="M205 220V390" stroke="#282725" stroke-width="8"/><path d="M150 390Q205 365 260 390L245 440Q205 455 165 440Z" fill="#292826"/><ellipse cx="205" cy="455" rx="90" ry="65" fill="#ffe6a1" opacity=".25" filter="url(#blur)"/><path d="M995 220V390" stroke="#282725" stroke-width="8"/><path d="M940 390Q995 365 1050 390L1035 440Q995 455 955 440Z" fill="#292826"/></svg>