<svg xmlns="http://www.w3.org/2000/svg" viewBox="0 0 800 800" role="img" aria-label="Crown Dome Table Lamp"><defs>
<linearGradient id="bg" x1="0" y1="0" x2="1" y2="1"><stop stop-color="#e8e1d6"/><stop offset="1" stop-color="#eee8de"/></linearGradient>
<linearGradient id="metal" x1="0" y1="0" x2="1" y2="1"><stop stop-color="#080808"/><stop offset=".45" stop-color="#4b4b48"/><stop offset=".7" stop-color="#151515"/><stop offset="1" stop-color="#050505"/></linearGradient>
<linearGradient id="gold" x1="0" y1="0" x2="1" y2="1"><stop stop-color="#765625"/><stop offset=".45" stop-color="#e2bd70"/><stop offset=".7" stop-color="#9c7538"/><stop offset="1" stop-color="#4f3819"/></linearGradient>
<linearGradient id="glass" x1="0" y1="0" x2="1" y2="1"><stop stop-color="#fff" stop-opacity=".96"/><stop offset=".45" stop-color="#d8d0c2" stop-opacity=".78"/><stop offset="1" stop-color="#fff" stop-opacity=".95"/></linearGradient>
<radialGradient id="glow"><stop stop-color="#fff7d6" stop-opacity=".95"/><stop offset="1" stop-color="#f2b84b" stop-opacity="0"/></radialGradient>
<filter id="shadow" x="-30%" y="-30%" width="160%" height="160%"><feGaussianBlur stdDeviation="16"/><feColorMatrix values="0 0 0 0 0.05 0 0 0 0 0.04 0 0 0 0 0.03 0 0 0 .24 0"/><feOffset dy="14"/></filter>
<filter id="soft" x="-30%" y="-30%" width="160%" height="160%"><feGaussianBlur stdDeviation="10"/></filter>
</defs><rect width="800" height="800" fill="url(#bg)"/><ellipse cx="400" cy="685" rx="205" ry="30" fill="#000" opacity=".12" filter="url(#soft)"/><ellipse cx="400" cy="625" rx="130" ry="22" fill="#000" opacity=".14" filter="url(#soft)"/><path d="M400 560V310" stroke="url(#gold)" stroke-width="10"/><ellipse cx="400" cy="566" rx="95" ry="22" fill="url(#metal)"/><path d="M295 304 Q400 250 505 304 L468 398 Q400 428 332 398Z" fill="url(#metal)"/><ellipse cx="400" cy="392" rx="72" ry="14" fill="#fff2c5"/><ellipse cx="400" cy="396" rx="82" ry="22" fill="url(#glow)" opacity=".45"/></svg>