<svg xmlns="http://www.w3.org/2000/svg" viewBox="0 0 800 800" role="img" aria-label="Essential Smart Bulb"><defs>
<linearGradient id="bg" x1="0" y1="0" x2="1" y2="1"><stop stop-color="#e8e1d6"/><stop offset="1" stop-color="#eee8de"/></linearGradient>
<linearGradient id="metal" x1="0" y1="0" x2="1" y2="1"><stop stop-color="#080808"/><stop offset=".45" stop-color="#4b4b48"/><stop offset=".7" stop-color="#151515"/><stop offset="1" stop-color="#050505"/></linearGradient>
<linearGradient id="gold" x1="0" y1="0" x2="1" y2="1"><stop stop-color="#765625"/><stop offset=".45" stop-color="#e2bd70"/><stop offset=".7" stop-color="#9c7538"/><stop offset="1" stop-color="#4f3819"/></linearGradient>
<linearGradient id="glass" x1="0" y1="0" x2="1" y2="1"><stop stop-color="#fff" stop-opacity=".96"/><stop offset=".45" stop-color="#d8d0c2" stop-opacity=".78"/><stop offset="1" stop-color="#fff" stop-opacity=".95"/></linearGradient>
<radialGradient id="glow"><stop stop-color="#fff7d6" stop-opacity=".95"/><stop offset="1" stop-color="#f2b84b" stop-opacity="0"/></radialGradient>
<filter id="shadow" x="-30%" y="-30%" width="160%" height="160%"><feGaussianBlur stdDeviation="16"/><feColorMatrix values="0 0 0 0 0.05 0 0 0 0 0.04 0 0 0 0 0.03 0 0 0 .24 0"/><feOffset dy="14"/></filter>
<filter id="soft" x="-30%" y="-30%" width="160%" height="160%"><feGaussianBlur stdDeviation="10"/></filter>
</defs><rect width="800" height="800" fill="url(#bg)"/><ellipse cx="400" cy="685" rx="205" ry="30" fill="#000" opacity=".12" filter="url(#soft)"/><path d="M400 170 C315 170 275 250 306 324 C320 357 346 370 352 408 H448 C454 370 480 357 494 324 C525 250 485 170 400 170Z" fill="url(#glass)" stroke="#8e8679" stroke-width="4"/><path d="M350 410H450V468Q400 492 350 468Z" fill="url(#metal)"/><path d="M365 470H435V500Q400 520 365 500Z" fill="#111"/><ellipse cx="400" cy="280" rx="110" ry="120" fill="url(#glow)" opacity=".48"/></svg>